<?xml version="1.0" encoding="utf-8"?>
<!-- Generator: Adobe Illustrator 19.0.0, SVG Export Plug-In . SVG Version: 6.00 Build 0)  -->
<svg version="1.1" id="Capa_1" xmlns="http://www.w3.org/2000/svg" xmlns:xlink="http://www.w3.org/1999/xlink" x="0px" y="0px"
	 viewBox="0 0 356.3 123.7" style="enable-background:new 0 0 356.3 123.7;" xml:space="preserve">
<style type="text/css">
	.st0{fill:#2D5080;}
	.st1{clip-path:url(#SVGID_2_);fill:#2D5080;}
	.st2{clip-path:url(#SVGID_2_);fill-rule:evenodd;clip-rule:evenodd;fill:#2D5080;}
</style>
<polygon class="st0" points="31.4,59.4 12.9,80 12.9,59.4 0,59.4 0,111 12.9,111 12.9,96 20.7,88.1 34.7,111 49.1,111 29.7,79 
	48.5,59.4 "/>
<rect x="53.8" y="72.4" class="st0" width="11.3" height="38.6"/>
<rect x="53.8" y="59.4" class="st0" width="11.3" height="8.7"/>
<g>
	<defs>
		<rect id="SVGID_1_" y="0" width="356.3" height="123.7"/>
	</defs>
	<clipPath id="SVGID_2_">
		<use xlink:href="#SVGID_1_"  style="overflow:visible;"/>
	</clipPath>
	<path class="st1" d="M104.2,78.4c-0.3-1.4-1-2.5-1.9-3.6c-0.9-1.1-2.1-1.9-3.6-2.5c-1.5-0.6-3.4-0.9-5.7-0.9
		c-0.9,0-1.8,0.1-2.8,0.2c-1,0.1-2,0.4-3,0.7c-1,0.3-2,0.8-2.9,1.4c-0.9,0.5-1.7,1.2-2.5,2.1v-3.4H70.7V111H82V87
		c0-1.7,0.4-3.2,1.3-4.5c0.9-1.3,2.4-2,4.7-2c2.2,0,3.6,0.6,4.3,1.7c0.8,1.2,1.2,2.7,1.2,4.6V111h11.3V82.5
		C104.8,81.1,104.6,79.7,104.2,78.4"/>
	<path class="st1" d="M137.7,123.2c1.4-0.2,2.8-0.6,4.1-1.2c1.4-0.5,2.5-1.3,3.5-2.2c1.1-0.9,1.9-2.1,2.5-3.6
		c0.6-1.4,0.9-3.1,0.9-5.1V72.4h-10.4v3c-1.6-1.5-3.3-2.6-5.1-3.2c-1.8-0.6-3.7-0.9-5.9-0.9c-2.6,0-4.8,0.5-6.7,1.6
		c-1.9,1.1-3.5,2.5-4.7,4.3c-1.3,1.7-2.2,3.7-2.8,6c-0.6,2.2-0.9,4.5-0.9,6.9c0,2.4,0.3,4.7,0.8,7c0.6,2.2,1.4,4.2,2.6,5.9
		c1.2,1.7,2.7,3,4.6,4.1c1.9,1,4.3,1.5,7,1.5c0.9,0,1.8-0.1,2.8-0.1c1-0.1,1.9-0.3,2.9-0.5c1-0.3,1.9-0.6,2.8-1
		c0.9-0.4,1.6-0.9,2.2-1.5v4.4c0,1.4-0.2,2.5-0.5,3.4c-0.3,0.9-0.7,1.5-1.4,2c-0.6,0.5-1.4,0.8-2.2,0.9c-0.8,0.1-1.8,0.2-2.9,0.2
		c-2,0-3.6-0.5-4.8-1.4c-1.1-0.9-1.7-2.4-1.7-4.6h-11.7c0,4.7,1.6,8.1,4.5,10.2c3,2.1,7.4,3.1,13.3,3.1c1,0,2.1,0,3.4-0.1
		C135,123.6,136.3,123.5,137.7,123.2 M126.8,99.4c-0.9-0.6-1.6-1.4-2.1-2.5c-0.5-1-0.8-2.1-1-3.3c-0.1-1.2-0.2-2.4-0.2-3.5
		c0-2.1,0.2-3.8,0.6-5.1c0.4-1.3,1-2.4,1.6-3.2c0.7-0.8,1.4-1.3,2.3-1.6c0.9-0.3,1.7-0.4,2.6-0.4c0.9,0,1.7,0.2,2.6,0.5
		c0.9,0.3,1.7,0.9,2.3,1.7c0.7,0.8,1.3,1.9,1.7,3.2c0.4,1.3,0.6,2.9,0.6,4.9c0,1,0,2.1-0.1,3.3c-0.1,1.2-0.4,2.3-0.9,3.3
		c-0.5,1-1.2,1.9-2.2,2.6c-1,0.7-2.4,1-4.2,1C128.9,100.3,127.7,100,126.8,99.4"/>
	<path class="st1" d="M160,98.3l-7,6.1c1.4,1.3,2.8,2.4,4.1,3.4c1.3,1,2.8,1.8,4.2,2.4c1.5,0.6,3.1,1,4.8,1.3
		c1.7,0.3,3.7,0.5,5.7,0.5c2.1,0,4.2-0.2,6.2-0.7c2.1-0.5,3.9-1.3,5.6-2.3c1.7-1.1,3.1-2.5,4.1-4.3c1-1.8,1.5-3.9,1.5-6.5
		c0-2.4-0.6-4.3-1.7-5.7c-1.1-1.4-2.5-2.5-4.2-3.3c-1.7-0.8-3.5-1.4-5.5-1.7l-5.4-1.1c-1.7-0.3-3.1-0.8-4.3-1.3
		c-1.1-0.5-1.7-1.4-1.7-2.5c0-1,0.5-1.7,1.4-2.2c0.9-0.5,2.1-0.8,3.5-0.8c0.9,0,1.8,0.1,2.8,0.3c1,0.1,2,0.4,3,0.8
		c1,0.3,1.9,0.8,2.7,1.3c0.9,0.5,1.6,1.1,2.2,1.7l7-6.8c-2.6-1.7-5.4-3.1-8.3-4.1c-2.8-1-5.8-1.5-8.8-1.5c-1.9,0-3.9,0.2-5.9,0.7
		c-1.9,0.5-3.7,1.3-5.2,2.4c-1.5,1.1-2.8,2.5-3.8,4.2c-1,1.7-1.4,3.7-1.4,6.2c0,2.3,0.6,4.1,1.7,5.4c1.2,1.3,2.6,2.4,4.3,3.2
		c1.7,0.8,3.5,1.4,5.4,1.7l5.5,1.1c1.7,0.3,3.1,0.7,4.2,1.2c1.2,0.5,1.7,1.2,1.7,2.3c0,0.9-0.2,1.6-0.7,2.1c-0.4,0.5-1,0.9-1.7,1.2
		c-0.6,0.3-1.3,0.5-2,0.6c-0.7,0-1.3,0.1-1.7,0.1c-2.6,0-4.9-0.5-6.7-1.5C163.6,101.3,161.8,100,160,98.3"/>
	<path class="st1" d="M211.6,72.3c-0.9,0.3-1.8,0.8-2.7,1.4c-0.9,0.6-1.8,1.3-2.6,2.3V59.4h-11.3V111h10.9v-3.8h0.1
		c1,1.2,2.3,2.3,4,3.3c1.7,1,3.7,1.4,5.9,1.4c2.4,0,4.7-0.4,6.8-1.2c2.1-0.8,4-2.1,5.5-3.8c1.5-1.7,2.8-4,3.6-6.7
		c0.9-2.7,1.4-6,1.4-9.8c0.1-3.5-0.4-6.4-1.4-8.8c-1-2.5-2.2-4.4-3.8-5.9c-1.5-1.5-3.3-2.7-5.3-3.3c-2-0.7-3.9-1-5.9-1
		c-0.8,0-1.6,0.1-2.5,0.2C213.4,71.7,212.5,72,211.6,72.3 M217.8,80.6c1,0.5,1.8,1.3,2.4,2.4c0.6,1,1,2.3,1.2,3.8
		c0.3,1.5,0.5,3.2,0.5,5c0,1.6-0.1,3.2-0.4,4.7c-0.2,1.4-0.7,2.7-1.3,3.8c-0.6,1.1-1.4,1.9-2.5,2.5c-1,0.6-2.2,0.9-3.6,0.9
		c-1.4,0-2.7-0.3-3.7-0.9c-1-0.6-1.8-1.5-2.5-2.5c-0.6-1.1-1.1-2.4-1.4-3.8c-0.2-1.5-0.4-3.1-0.4-4.7c0-1.6,0.1-3.2,0.4-4.6
		c0.3-1.5,0.7-2.8,1.4-3.8c0.6-1.1,1.4-2,2.5-2.6c1-0.6,2.3-0.9,3.7-0.9C215.6,79.7,216.8,80,217.8,80.6"/>
	<path class="st1" d="M249.6,97.7V72.4h-11.3v28.5c0,1.4,0.2,2.8,0.5,4.2c0.4,1.3,1,2.5,1.9,3.6c0.9,1,2.1,1.8,3.6,2.4
		c1.5,0.6,3.4,0.9,5.7,0.9c0.9,0,1.8-0.1,2.8-0.2c1-0.1,2-0.4,3-0.7c1-0.3,2-0.8,2.9-1.3c0.9-0.6,1.7-1.3,2.5-2.2v3.4h11.3V72.4
		h-11.3v24.4c0,2.1-0.6,3.7-1.8,4.6c-1.2,0.9-2.6,1.4-4.2,1.4c-2.2,0-3.7-0.4-4.4-1.3C250,100.7,249.6,99.3,249.6,97.7"/>
	<path class="st1" d="M293.8,84.3c1.4-0.8,3.9-1.4,7.2-1.8l1.2-0.1l-0.1-10c-2,0.1-4,0.6-5.9,1.3c-1.9,0.7-3.5,1.6-4.7,2.8v-3.9
		h-11.3V111h11.3V88.7C291.6,86.5,292.3,85.1,293.8,84.3"/>
	<path class="st1" d="M321.9,122.9c1.2-0.5,2.1-1.2,3-2.1c0.9-0.9,1.6-2,2.2-3.3c0.6-1.3,1.2-2.6,1.7-4.1l13.6-41.1H330l-6.3,29.4
		h-0.2l-6.2-29.4h-11.9l11.3,35.6c0.5,1.4,0.8,2.4,0.9,2.9c0.1,0.5,0.1,0.9,0.1,1.2c0,1.1-0.5,1.9-1.4,2.2c-0.9,0.4-2.1,0.6-3.8,0.6
		c-0.6,0-1.3,0-1.9-0.1c-0.6,0-1.3,0-2-0.1v8.8h8.9C319.3,123.7,320.7,123.5,321.9,122.9"/>
	<path class="st2" d="M208.3,19.5l0-0.4l-0.1-0.4l-0.2-0.3l-0.2-0.3l-0.3-0.3l-0.4-0.2l-0.4-0.1l-0.3,0.1l-0.3,0.2l-0.3,0.2
		l-0.2,0.3l-0.2,0.3l-0.1,0.4l-0.1,0.4l-0.1,0.4l0,0.4l0.1,0.4l0.1,0.3l0.2,0.3l0.1,0.1l0.1,0.1l0.2,0.1l0.4,0l0.4,0l0.4-0.1
		l0.3-0.2l0.3-0.2l0.3-0.3l0.2-0.3l0.2-0.3l0.1-0.4L208.3,19.5z M201.4,35.6l-0.5-1.1l0-0.1l-0.1,0l-0.1,0h-0.1l-0.1,0l-2,0.7
		l-0.1,0.2l1.6,1.4l0.1,0.1l0.1,0.1l0.1,0l0.1,0l0.1,0L201.4,35.6 M209.5,7.8l-0.6,2.1l-0.7,2.3l-0.7,2.4l-0.7,2.4l-0.3,0h0
		l-0.3,0.1l0,0l-0.3,0.2l0,0l-0.3,0.3l0,0l-0.3,0.3l0,0l-0.2,0.3v0l-0.2,0.4v0l-0.1,0.4l0,0l-0.1,0.4l0,0.4v0.4l0.1,0.4v0l0.1,0.4
		l0,0l0.2,0.3l0,0l0.2,0.3l0.3,0.2l-0.7,2.1l-0.7,2.1l-0.7,2.1l-0.7,1.9l-0.2-0.2l0,0l-0.4-0.3l0,0l-0.4-0.3h0l-0.5-0.3l-0.5-0.3h0
		l-0.6-0.2v0l-0.7-0.2l-0.5-0.2l0.4-0.2h0l0.6-0.4v0l0.6-0.4h0l0.6-0.5v0l0.5-0.5h0l0.5-0.6v0l0.4-0.6l0,0l0.3-0.6l0.3-0.6l0,0
		l0.2-0.7v0l0.1-0.7l0.1-0.7l0-0.7v0l-0.1-0.7l-0.2-0.7l-0.3-0.1l0,0l-0.2-0.1h0l-0.2,0h0l-0.2,0h0l-0.2,0.1l0,0l-0.2,0.1h0
		l-0.2,0.1l-0.2,0.1l-0.3,0.1l-0.3,0.1l-0.3,0.1l-0.3,0.1l-0.3,0h-0.4l-0.4,0l-0.4-0.1l-0.4-0.1l-0.4-0.2l0,0v0l0.1-0.2l0.1-0.2
		l0.1-0.2l0.2-0.2l0.2-0.2l0.2-0.2l0.2-0.2l0.2-0.1l0.2-0.1l0.1-0.1l0.1-0.1l0.1-0.1l0,0l-0.3,0l-0.2,0l-0.2-0.1l-0.2-0.1l-0.2-0.1
		l-0.2-0.1L198,17l-0.2-0.2l-0.1-0.2l-0.1-0.2l-0.1-0.2l-0.1-0.3l-0.1-0.3l0-0.3l0.3-0.2l0.3-0.2l0.3-0.1l0.2-0.1l0.2,0l0.2,0l0.3,0
		l0.2,0l0.2,0.1l0.2,0.1L200,15l0.2,0.2l0.1,0.1l0.2,0.3l0.1,0v-0.2l0-0.1l0-0.2l0-0.2l0-0.2v-0.3l0-0.3l0.1-0.3l0.1-0.3l0.1-0.3
		l0.1-0.2v0l0.1-0.2l0.4,0.2l0.4,0.3l0.3,0.3l0.3,0.3l0.2,0.3l0.2,0.3l0.1,0.3l0.1,0.3l0.1,0.3l0.1,0.3l0.1,0.3l0.1,0.2l0.1,0.2l0,0
		l0.1,0.2v0l0.1,0.2l0,0l0.1,0.2l0,0l0.2,0.1l0.2,0.1l0.3,0.1h0l0.3,0h0l0.3-0.1l0,0l0.3-0.1l0,0l0.2-0.2l0.1-0.3l0.1-0.3l0-0.3
		l0-0.3v0l0-0.3v0l-0.1-0.2h0l-0.1-0.2v0l-0.1-0.2l-0.1-0.2l-0.1-0.2l-0.1-0.3l-0.1-0.3l-0.1-0.3l-0.1-0.3l-0.1-0.3l-0.1-0.4l0-0.4
		l0-0.4l0.1-0.5l0.1-0.5l0.1-0.5l0,0l0.2,0.1l0.2,0.1l0.3,0.1l0.3,0.2l0.3,0.2l0.2,0.2l0.2,0.2l0.2,0.2l0.1,0.2l0.1,0.2l0.1,0.1
		l0,0.1l0.1,0.2l0.1,0l0-0.3l0-0.2l0.1-0.3l0.1-0.3l0.1-0.3l0.1-0.3l0.1-0.3l0.1-0.3l0.1-0.2l0.1-0.2l0.2-0.3l0.2-0.2l0.2-0.2
		l0.2-0.1l0.2-0.1l0.3-0.1l0.3-0.1L209.5,7.8 M204.2,23.5l-0.1-0.1l-0.6,0.9l-0.4,0.7l-0.4,0.6l-0.4,0.5l-0.4,0.5l-0.4,0.4l-0.3,0.3
		l-0.3,0.3l-0.3,0.2l-0.5,0.3v0l0.5,0.2l0.3,0.1l0.2,0.1l0.2,0.1l0.2,0.1l0.2,0.1l0.4,0.3l0.3-0.8v0l0.3-0.8l0.3-0.8l0.3-0.8
		l0.3-0.8h0l0.3-0.8l0.2-0.8L204.2,23.5 M192.2,19.3l0-0.4l-0.1-0.4l-0.2-0.3l-0.2-0.3l-0.3-0.2l-0.3-0.2l-0.3-0.1l-0.4,0l-0.4,0
		l-0.3,0.1l-0.3,0.2l-0.3,0.2l-0.2,0.3l-0.2,0.3l-0.1,0.3l0,0.4l0,0.4l0.1,0.3l0.2,0.3l0.2,0.3l0.3,0.2l0.3,0.2l0.3,0.1l0.4,0l0.4,0
		l0.3-0.1l0.3-0.2l0.3-0.2l0.2-0.3l0.2-0.3l0.1-0.4L192.2,19.3 M191.5,33l0-0.2l-0.1-0.2l-0.2-0.2l-0.2-0.2l-0.3-0.2l-0.4-0.2
		l-0.4-0.2l-0.5-0.1l-0.5-0.1l-0.5-0.1l-0.6-0.1l-0.6,0l-0.6,0l-0.5,0l-0.5,0.1l-0.4,0.1l-0.4,0.1l-0.3,0.2l-0.3,0.2L184,32
		l-0.1,0.2l-0.1,0.2l0,0.2l0.1,0.2l0.2,0.2l0.2,0.2l0.3,0.2l0.4,0.2l0.4,0.2l0.5,0.1l0.5,0.1l0.5,0.1l0.6,0.1l0.6,0h0.6l0.5,0
		l0.5-0.1l0.4-0.1l0.4-0.1l0.3-0.2l0.3-0.2l0.2-0.2l0.1-0.2L191.5,33 M198.3,27.3l-0.4,0l-0.7-0.1l-0.7-0.1h0l-0.7-0.1l-0.7-0.2h0
		l-0.7-0.2v0l-0.7-0.3h0l-0.7-0.3h0l-0.6-0.4v0l-0.6-0.4h0l-0.6-0.5l0,0l-0.5-0.6l-0.5-0.6l0,0l-0.4-0.6l-0.1,0.1l-0.3,0.2l-0.3,0.2
		h0l-0.4,0.2l-0.4,0.2l-0.5,0.2l-0.5,0.2h0l-0.6,0.2v0l-0.6,0.2h0l-0.7,0.2l-0.7,0.2l-0.7,0.1h0l-0.8,0.1l-0.8,0.1h0l-0.8,0l-0.8,0
		h0l-0.8-0.1l-0.8-0.1h0l-0.8-0.2h0l-0.4-0.2l0.9,0.9l1.3,0.1l1.4,0.1l1.4,0.1l1.4,0.1l1.4,0.1l1.4,0.1l1.4,0.1l1.4,0.2l1.4,0.2
		l1.4,0.2l1.3,0.2h0l1.3,0.2l1.2,0.2l1.1,0.3L198.3,27.3 M200.7,25.5l-0.4,0.2l-0.8,0.2h0l-0.7,0.1L198,26h0l-0.7,0h0l-0.7-0.1h0
		l-0.7-0.1h0l-0.7-0.2v0l-0.6-0.2h0L194,25h0l-0.6-0.4v0l-0.6-0.4h0l-0.5-0.4v0l-0.5-0.5h0l-0.4-0.5v0l-0.4-0.6h0l-0.3-0.5l-0.4,0
		l-0.5-0.1l0,0l-0.4-0.2h0l-0.4-0.2l-0.9,0.6l-0.9,0.5h0l-0.9,0.4h0l-0.9,0.4v0l-0.9,0.3h0l-0.9,0.2l-0.8,0.2h0l-0.8,0.1h0l-0.8,0
		l-0.8,0h0l-0.8-0.1h0l-0.7-0.2h0l-0.7-0.2v0l-0.7-0.3h0l-0.7-0.3l-0.6-0.4h0l-0.6-0.4l0,0l-0.2-0.1l0.1,0.1l0.3,0.5l0.4,0.5
		l0.4,0.5l0.7,0.3l0.8,0.3l0.8,0.2l0.8,0.1l0.8,0.1l0.8,0l0.8,0l0.7-0.1l0.7-0.1l0.7-0.1l0.7-0.2l0.7-0.2l0.6-0.2l0.6-0.2l0.5-0.3
		l0.5-0.2l0.5-0.2l0.4-0.2l0.4-0.2l0.3-0.2l0.2-0.2l0.3-0.2l0.5,0.8l0.5,0.7l0.5,0.6l0.6,0.5l0.6,0.5l0.6,0.4l0.6,0.4l0.7,0.3
		l0.7,0.2l0.7,0.2l0.7,0.1l0.7,0.1h0.8l0.8-0.1l0.8-0.1l0.3-0.3l0.4-0.3L200.7,25.5L200.7,25.5 M173.3,14l0-0.4l-0.1-0.4L173,13
		l-0.2-0.3l-0.3-0.3l-0.3-0.2l-0.3-0.2l-0.4-0.1l-0.4,0l-0.4,0l-0.4,0.1l-0.3,0.2l-0.3,0.2l-0.3,0.3l-0.2,0.3l-0.2,0.3l-0.1,0.4
		l0,0.4l0,0.4l0.1,0.4l0.2,0.3l0.2,0.3l0.3,0.3l0.3,0.2l0.3,0.2l0.4,0.1l0.4,0l0.4,0l0.4-0.1l0.3-0.2l0.3-0.2l0.3-0.3l0.2-0.3
		l0.2-0.3l0.1-0.4L173.3,14 M174.2,32L174.2,32l-0.1-0.2l-2.6-1.5l-0.2-0.1l-0.2,0l-0.2,0l-0.1,0.1l-2.5,1.8l2.5,1.4l0.2,0.1l0.2,0
		l0.2,0l0.1-0.1l2.6-1.5L174.2,32L174.2,32 M173.2,3.4l0,0.4l-0.1,0.4l-0.2,0.6l0,0l0.2-0.1l0,0l0.1-0.1l0.1-0.1l0.2-0.1l0.2-0.1
		l0.2-0.1l0.3-0.1l0.3-0.1l0.3-0.1l0.4-0.1l0.4-0.1l0.4,0l0.3,0l0.3,0h0.2h0.1l0,0.5l-0.1,0.6l-0.1,0.5l-0.1,0.4L176.2,6L176,6.4
		l-0.2,0.3L175.5,7l-0.2,0.3l-0.3,0.2l-0.3,0.2l-0.3,0.2l-0.3,0.2L174,8.3h0l-0.2,0.2l-0.2,0.2v0l-0.2,0.2l0,0l-0.2,0.2h0L173,9.4v0
		l-0.1,0.2l0,0l-0.1,0.3l0,0.3l0,0.3l0,0.2v0l0.1,0.2l0,0l0.1,0.2l0.2,0.2l0.1,0.1l0,0l0.2,0.1l0,0l0.2,0.1h0l0.3,0l0.3,0l0.3-0.1
		l0,0l0.3-0.1h0l0.2-0.1l0,0l0.2-0.2l0,0l0.2-0.2h0l0.2-0.2v0l0.2-0.2l0.2-0.2l0.2-0.2l0.2-0.2l0.2-0.2l0.2-0.3l0.2-0.2l0.3-0.2
		l0.3-0.2l0.4-0.2l0.4-0.2l0.5-0.2l0.6-0.1l0.5-0.1v0l0,0.2l0,0.3l0,0.3V9l0,0.3l-0.1,0.2l-0.1,0.2L180,10l-0.1,0.2l-0.1,0.2
		l-0.1,0.1v0l0,0.1l-0.1,0.2l0,0l0.3-0.2l0.2-0.1l0.3-0.1l0.3-0.1l0.3-0.1l0.3-0.1l0.3,0l0.2,0l0.3,0.1l0.3,0.1l0.2,0.1l0.2,0.1
		l0.2,0.1l0.3,0.2l0.3,0.2l0.3,0.2l-0.2,0.3l-0.2,0.3l-0.2,0.3l-0.2,0.2l-0.2,0.2l-0.2,0.2l-0.3,0.1l-0.3,0.2l-0.2,0.1l-0.3,0.1
		l-0.3,0l-0.3,0H181l-0.3,0l-0.2,0l-0.3,0l0,0.1l0.1,0.1l0,0l0.1,0l0.1,0.1l0.1,0.1l0.2,0.2L181,14l0.2,0.2l0.1,0.2l0.2,0.3l0.1,0.3
		l0.1,0.3l0.1,0.2l0.1,0.2l0,0l-0.5,0.1l-0.6,0h-0.5l-0.5,0l-0.4-0.1l-0.4-0.1l-0.4-0.1l-0.3-0.1l-0.3-0.1l-0.3-0.1l-0.3-0.1
		l-0.3-0.1l-0.2-0.1l-0.2-0.1h0l-0.3-0.1v0l-0.2-0.1h0l-0.3-0.1h0l-0.3,0h0l-0.3,0l-0.4,0.1l-0.5,0.5v0l-0.4,0.5h0l-0.3,0.5v0
		l-0.2,0.5l0,0l-0.2,0.5v0l-0.1,0.5v0l0,0.5v0l0,0.5v0l0.1,0.5v0l0.1,0.5v0l0.2,0.5h0l0.2,0.5v0l0.2,0.5l0.3,0.5v0l0.3,0.5L175,23h0
		l0.3,0.5l0.4,0.5v0l0.4,0.5l0.4,0.5l0.4,0.4l0.2,0.3l-1.9-0.1l-4-0.1l-4,0.1l-1.9,0.1l0.3-0.4l0.5-0.6l0.5-0.6v0l0.5-0.6l0.4-0.6h0
		l0.4-0.6v0l0.4-0.6l0.3-0.7v0l0.3-0.7h0l0.2-0.7v0l0.1-0.7l0-0.7l0-0.6l-0.1-0.5v0l-0.2-0.5l0,0l-0.2-0.5l-0.3-0.5l0,0l-0.4-0.5
		l-0.5-0.5l-0.4-0.1h0l-0.3,0h0l-0.3,0h0l-0.3,0.1h0l-0.3,0.1v0l-0.2,0.1h0l-0.2,0.1l-0.2,0.1l-0.3,0.1l-0.3,0.1l-0.3,0.1l-0.3,0.1
		l-0.3,0.1l-0.3,0.1l-0.4,0.1l-0.4,0.1l-0.5,0h-0.5l-0.6,0l-0.5-0.1l0,0l0.1-0.2l0.1-0.2l0.1-0.3l0.1-0.3l0.2-0.3l0.1-0.2l0.2-0.2
		l0.2-0.2l0.2-0.2l0.1-0.1l0.1-0.1l0.1,0l0.1-0.1l0-0.1l-0.3,0l-0.2,0l-0.3,0H161l-0.3,0l-0.3,0l-0.3-0.1l-0.2-0.1l-0.3-0.2
		l-0.3-0.1l-0.2-0.2l-0.2-0.2l-0.2-0.2l-0.1-0.3l-0.2-0.3l-0.2-0.3l0.3-0.2l0.3-0.2l0.3-0.2l0.2-0.1l0.2-0.1l0.2-0.1l0.3-0.1
		l0.3-0.1l0.2,0l0.3,0l0.3,0.1l0.3,0.1l0.3,0.1l0.3,0.1l0.2,0.1l0.3,0.2l0,0l-0.1-0.2l0,0l0-0.1v0l-0.1-0.1l-0.1-0.2l-0.1-0.2
		l-0.1-0.2l-0.1-0.2L162,9.3l0-0.3V8.7l0-0.3l0-0.3l0-0.2v0l0.5,0.1l0.6,0.1l0.5,0.2l0.4,0.2l0.4,0.2l0.3,0.2l0.3,0.2l0.2,0.2
		l0.2,0.3l0.2,0.2l0.2,0.2l0.2,0.2l0.2,0.2v0l0.2,0.2l0.2,0.2l0,0l0.2,0.2h0l0.2,0.2v0l0.2,0.1l0,0l0.3,0.1l0.3,0.1l0.3,0h0l0.3,0h0
		l0.2-0.1l0,0l0.2-0.1l0.2-0.1l0.2-0.2l0,0l0.1-0.2l0,0l0.1-0.2v0l0-0.2l0-0.3l0-0.3v0l-0.1-0.3l0,0l-0.1-0.2v0l-0.1-0.2h0l-0.2-0.2
		v0l-0.2-0.2l0,0l-0.2-0.2l-0.2-0.2h0L168,8.1l-0.3-0.2l-0.3-0.2l-0.3-0.2L167,7.2L166.7,7l-0.2-0.3l-0.2-0.3L166.1,6l-0.2-0.4
		l-0.1-0.4l-0.1-0.5l-0.1-0.6l0-0.5h0h0h0.2l0.3,0l0.3,0l0.4,0l0.4,0.1l0.4,0.1l0.3,0.1l0.3,0.1l0.3,0.1l0.2,0.1l0.2,0.1l0.2,0.1
		l0.1,0.1h0l0.1,0.1l0.2,0.1l0,0l-0.2-0.6l-0.1-0.4l0-0.4l0-0.5l0.1-0.4l0.2-0.4l0.2-0.4l0.3-0.4l0.3-0.4l0.3-0.3l0.4-0.3l0.3-0.2
		l0.3,0.2l0.4,0.3l0.3,0.3l0.3,0.4l0.3,0.4l0.2,0.4l0.1,0.4l0.1,0.4L173.2,3.4 M174,14.1L174,14.1l0-0.5v0l-0.1-0.4l0,0l-0.2-0.4v0
		l-0.2-0.4l0,0l-0.3-0.3l0,0l-0.3-0.3l0,0l-0.4-0.2h0l-0.4-0.2l0,0l-0.4-0.1l-0.4,0l-0.5,0h0l-0.4,0.1l0,0l-0.4,0.2h0l-0.4,0.2l0,0
		l-0.3,0.3l0,0l-0.3,0.3l0,0l-0.2,0.4v0l-0.2,0.4l0,0l-0.1,0.4l0,0.5l0,0.5v0l0.1,0.4l0,0l0.2,0.4v0l0.2,0.4l0,0l0.3,0.3l0,0
		l0.3,0.3l0,0l0.4,0.2h0l0.4,0.2l0,0l0.4,0.1l0.5,0l0.4,0h0l0.4-0.1l0,0l0.4-0.2h0l0.4-0.2l0,0l0.3-0.3l0,0l0.3-0.3l0,0l0.2-0.4v0
		l0.2-0.4l0,0l0.1-0.4L174,14.1 M174.3,24.6l-0.5-0.6l-0.3-0.5l-0.3-0.5l-0.3-0.6l-0.3-0.6l-0.3-0.7l-0.3-0.7l-0.3-0.8l-0.4-1.1
		h-0.1l-0.4,1.1l-0.3,0.8l-0.3,0.7l-0.3,0.7l-0.3,0.6l-0.3,0.6l-0.3,0.5l-0.3,0.5l-0.5,0.6l0,0l0.4,0l0.2,0l0.3,0h0l0.3,0l0.4,0
		l0.4,0l0.5,0l0.6,0l0.6,0l0.5,0l0.4,0l0.4,0l0.3,0h0l0.3,0l0.2,0l0.2,0L174.3,24.6L174.3,24.6 M158.5,32.4l-0.1-0.2l-0.1-0.2
		l-0.2-0.2l-0.3-0.2l-0.3-0.2l-0.4-0.1l-0.5-0.1l-0.5-0.1l-0.5,0l-0.6,0l-0.6,0l-0.6,0.1l-0.5,0.1l-0.5,0.1l-0.5,0.1l-0.4,0.2
		l-0.4,0.2l-0.3,0.2l-0.2,0.2l-0.2,0.2l-0.1,0.2l0,0.2l0.1,0.2l0.1,0.2l0.2,0.2l0.3,0.2l0.3,0.2l0.4,0.1l0.4,0.1l0.5,0.1l0.5,0h0.6
		l0.6,0l0.6-0.1l0.5-0.1l0.5-0.1l0.5-0.1l0.4-0.2l0.4-0.2l0.3-0.2l0.2-0.2l0.2-0.2l0.1-0.2L158.5,32.4 M153.7,19.3l0-0.4l-0.1-0.3
		l-0.2-0.3l-0.2-0.3l-0.3-0.2l-0.3-0.2l-0.3-0.1l-0.4,0l-0.4,0l-0.3,0.1l-0.3,0.2l-0.3,0.2l-0.2,0.3l-0.2,0.3l-0.1,0.3l0,0.4l0,0.4
		l0.1,0.3l0.2,0.3l0.2,0.3l0.3,0.2l0.3,0.2l0.3,0.1l0.4,0l0.4,0l0.3-0.1l0.3-0.2l0.3-0.2l0.2-0.3l0.2-0.3l0.1-0.3L153.7,19.3
		 M164.8,24.7l-0.4,0.2l-0.8,0.2h0l-0.8,0.1l-0.8,0.1h0l-0.8,0l-0.8,0h0l-0.8-0.1l-0.8-0.1h0l-0.7-0.1l-0.7-0.2l-0.7-0.2h0l-0.6-0.2
		v0l-0.6-0.2l-0.6-0.2h0l-0.5-0.2l-0.4-0.2l-0.4-0.2h0l-0.3-0.2l-0.3-0.2v0l-0.1-0.1l-0.4,0.6l-0.5,0.6h0l-0.5,0.6v0l-0.6,0.5h0
		l-0.6,0.4v0l-0.6,0.4h0l-0.7,0.3h0l-0.7,0.3v0l-0.7,0.2h0l-0.7,0.2l-0.7,0.1h0l-0.7,0.1l-0.7,0.1h0l-0.4,0l0.9,0.5l1.1-0.3l1.2-0.2
		l1.3-0.2h0l1.3-0.2l1.4-0.2l1.4-0.2l1.4-0.2l1.4-0.1l1.4-0.1l1.4-0.1l1.4-0.1l1.4-0.1l1.4-0.1h0l1.3-0.1L164.8,24.7 M198.9,41.2
		l-0.1-0.1l-0.1-0.1l-0.2-0.1l-0.2-0.1l-0.1,0l-0.1,0l-0.1,0l-0.2,0.1l-0.2,0.1l-0.4,0.1l-0.4,0.1l-0.4,0.1l-0.4,0.1l-0.4,0.1
		l-0.4,0.1l-0.3,0.1l-0.3,0.1l-0.2,0l-1,0.2l-1.1,0.2l-1.2,0.1l-1.3,0.1l-1.3,0.1l-1.4,0.1l-1.5,0.1l-1.5,0.1h0l-1.6,0.1l-1.7,0.1
		l-1.7,0.1l-1.8,0.1l-1.8,0l-1.9,0l-2.7,0l-2.7,0l-1.9,0l-1.8,0L163,43l-1.7-0.1l-1.7-0.1l-1.6-0.1h0l-1.5-0.1l-1.5-0.1l-1.4-0.1
		l-1.3-0.1l-1.3-0.1l-1.2-0.1l-1.1-0.2h0l-1-0.2l-0.2,0l-0.3-0.1l-0.3-0.1l-0.4-0.1l-0.4-0.1l-0.4-0.1l-0.4-0.1L145,41l-0.4-0.1
		l-0.2-0.1l-0.2-0.1l-0.1,0l-0.1,0l-0.1,0l-0.2,0.1l-0.1,0.1l-0.1,0.1l-0.1,0.1l0,0.1l0,0.1l0,0.1l0,0.1l0.1,0.1l0.2,0.1l0.2,0.1
		l0.3,0.1l0.9,0.2l1,0.2l1,0.2l1.1,0.2l1.2,0.2l1.3,0.2l1.3,0.2l1.4,0.2l1.4,0.1l1.5,0.1l1.6,0.1l1.6,0.1l1.7,0.1l1.7,0.1l1.8,0.1
		l1.8,0.1l1.9,0l2.8,0l2.8,0l1.9,0l1.8-0.1l1.8-0.1l1.7-0.1l1.7-0.1l1.6-0.1l1.6-0.1l1.5-0.1l1.4-0.1l1.4-0.2l1.3-0.2l1.3-0.2
		l1.2-0.2l1.1-0.2l1-0.2l1-0.2l0.9-0.2l0.3-0.1l0.2-0.1l0.2-0.1l0.1-0.1L198.9,41.2L198.9,41.2 M166.9,22l-0.2,0.1l-0.6,0.4h0
		l-0.6,0.4l-0.7,0.3h0l-0.7,0.3v0l-0.7,0.2h0l-0.7,0.2h0l-0.8,0.1h0l-0.8,0l-0.8,0h0l-0.8-0.1h0l-0.8-0.2l-0.9-0.2h0l-0.9-0.3v0
		l-0.9-0.4h0l-0.9-0.4h0l-0.9-0.5l-0.9-0.6l-0.4,0.2l-0.4,0.2l0,0l-0.5,0.1h0l-0.4,0l-0.3,0.5l-0.4,0.6v0l-0.4,0.5h0l-0.5,0.5v0
		l-0.5,0.4h0l-0.6,0.4v0l-0.6,0.4h0l-0.6,0.3h0l-0.6,0.2v0l-0.7,0.2h0l-0.7,0.1h0L145,26h0l-0.7,0h0l-0.7-0.1l-0.7-0.1h0l-0.8-0.2
		l0,0l-0.4-0.2l0.1,0.1l0.4,0.4l0.5,0.4l0.5,0.4l0.7,0.1l0.7,0l0.7,0l0.7-0.1l0.7-0.1l0.7-0.2l0.7-0.2l0.7-0.3l0.6-0.4l0.6-0.4
		l0.6-0.5l0.6-0.5l0.5-0.6l0.5-0.7l0.5-0.8l0.3,0.2l0.2,0.2l0.3,0.2l0.4,0.2l0.4,0.2l0.5,0.2l0.5,0.2l0.5,0.3l0.6,0.2l0.6,0.2
		l0.7,0.2l0.7,0.2l0.7,0.1l0.7,0.1l0.7,0.1l0.8,0l0.8,0l0.8-0.1l0.8-0.1l0.8-0.2L165,24l0.7-0.3l0.4-0.5l0.4-0.5l0.3-0.5L166.9,22
		 M201.1,40.2l0-0.3l-0.1-0.2l-0.2-0.2l-0.3-0.2l-0.3-0.2l-0.4-0.2l-0.5-0.2l-0.5-0.2l-0.6-0.2l-0.6-0.2l-0.7-0.2l-0.7-0.2l-0.8-0.1
		l-0.8-0.1l-0.8-0.1l-0.9-0.1l-0.9-0.1l-0.9-0.1l-1-0.1l-1-0.1l-1-0.1l-1-0.1l-1-0.1l-1-0.1l-1-0.1l-1-0.1l-1-0.1l-1-0.1l-1,0l-1,0
		l-1,0l-0.9,0l-0.9,0l-0.9,0l-0.9,0l-0.8,0l-0.8,0l-0.8,0l-0.7,0l-0.7,0l-0.8,0l-0.8,0l-0.8,0l-0.9,0l-0.9,0l-0.9,0l-0.9,0l-1,0
		l-1,0l-1,0l-1,0.1l-1,0.1l-1,0.1l-1,0.1l-1,0.1l-1,0.1l-1,0.1l-1,0.1l-1,0.1l-1,0.1l-0.9,0.1l-0.9,0.1l-0.9,0.1l-0.8,0.1l-0.8,0.1
		l-0.8,0.1l-0.7,0.2l-0.7,0.2l-0.6,0.2l-0.6,0.2l-0.5,0.2l-0.5,0.2l-0.4,0.2l-0.3,0.2l-0.3,0.2l-0.2,0.2l-0.1,0.2l-0.1,0.2l0,0.2
		l0.1,0.2l0.2,0.2l0.2,0.1L142,41l0.2,0.1l0.1,0l0.1,0l0.1,0l0.1-0.1l0.1-0.1l0.1-0.1l0.1-0.1v0l0.1-0.1h0l0.1-0.1l0.3-0.2l0.4-0.2
		h0l0.4-0.2l0.5-0.2v0l0.6-0.2h0l0.6-0.2l0.7-0.2l0.8-0.2l0.8-0.2h0l0.9-0.1l1-0.2l1-0.1l1.1-0.1l1.1-0.1l1.2-0.1l1.2-0.1l1.2-0.1
		l1.3-0.1l1.3-0.1h0l1.4-0.1l1.4-0.1l1.4-0.1l1.5-0.1l1.5,0l1.5,0l1.5,0l1.5,0l1.5,0l1.5,0l1.5,0l1.5,0l1.5,0.1l1.4,0.1l1.4,0.1
		l1.4,0.1h0l1.3,0.1l1.3,0.1l1.3,0.1l1.2,0.1l1.2,0.1l1.1,0.1l1.1,0.1l1,0.1l1,0.2l0.9,0.1h0l0.8,0.2l0.8,0.2l0.7,0.2l0.6,0.2h0
		l0.6,0.2v0l0.5,0.2l0.4,0.2h0l0.3,0.2l0,0l0.3,0.2l0.1,0.1l0.1,0.1l0,0l0.1,0.1l0.1,0.1v0l0.1,0.1l0.1,0l0.1,0l0.1,0l0.1,0l0.2-0.1
		l0.3-0.2l0.2-0.1l0.2-0.2l0.1-0.2L201.1,40.2 M143.7,35.1l-1.9-0.7l-0.1,0h-0.1l-0.1,0l-0.1,0l0,0l-0.4,1.4l0.9,0.9l0.1,0l0.1,0
		l0.1,0l0.1-0.1l0.1-0.1L143.7,35.1 M201.4,33.4l-0.3,0.6l-0.1-0.1h0l-0.2-0.1l0,0l-0.2,0l-0.2,0l-2.8,1l2.2,2.4l0.2,0.1l0,0
		l0.2,0.1l0.1,0l0,0.8l-0.3-0.2h0l-0.5-0.2h0l-0.6-0.2v0l-0.6-0.2h0l-0.7-0.2l-0.8-0.2l-0.8-0.2l-0.9-0.2h0l-0.9-0.2l-1-0.1l-1-0.1
		l-1-0.1l-1.1-0.1l-1.1-0.1l-1.1-0.1l-1.1-0.1l-1.1-0.1l-1.1-0.1l-1.1-0.1h0l-1.1-0.1l-1.1-0.1l-1.1-0.1l-1.1-0.1l-1.1,0l-1.1,0
		l-1,0l-1,0l-0.9,0l-0.9,0l-0.9,0l-0.8,0l-0.8,0l-0.9,0l-0.9,0l-0.9,0l-1,0l-1,0l-1.1,0l-1.1,0l-1.1,0.1l-1.1,0.1l-1.1,0.1l-1.1,0.1
		h0l-1.1,0.1l-1.1,0.1l-1.1,0.1l-1.1,0.1l-1.1,0.1l-1.1,0.1l-1.1,0.1l-1,0.1l-1,0.1l-1,0.1h0l-0.9,0.2l-0.9,0.2l-0.8,0.2l-0.8,0.2
		l-0.7,0.2h0l-0.6,0.2v0l-0.6,0.2h0l-0.5,0.2l-0.3,0.2l0-0.8l0.1,0h0l0.2-0.1l0.2-0.1l2.2-1.9l-2.9-1.4l-0.2,0h0l-0.2,0h0l-0.2,0.1
		l-0.1,0.1l-0.1-0.2l-0.1-0.2v0l-0.1-0.1h0l-0.1-0.1l0,0l0,0l0.1-0.2l0.1-0.2l0.2-0.2l0.3-0.2l0.4-0.2l0.4-0.2l0.5-0.2l0.6-0.2
		l0.7-0.2l0.7-0.2l0.8-0.2l0.8-0.2l0.9-0.2l1-0.2l1-0.2l1.1-0.2l1.1-0.1l1.2-0.1l1.2-0.1l1.3-0.1l1.3-0.1l1.3-0.1l1.4-0.1l1.4-0.1
		l1.4-0.1l1.5-0.1l1.5-0.1l1.5-0.1l1.6,0l1.6,0l1.6,0l1.6,0l1.6,0l1.6,0l1.5,0.1l1.5,0.1l1.5,0.1l1.4,0.1l1.4,0.1l1.4,0.1l1.3,0.1
		l1.3,0.1l1.3,0.1l1.2,0.1l1.2,0.1l1.1,0.1l1.1,0.2l1,0.2l0.9,0.2l0.9,0.2l0.8,0.2l0.8,0.2l0.7,0.2l0.7,0.2l0.6,0.2l0.5,0.2l0.4,0.2
		l0.4,0.2l0.3,0.2l0.2,0.2l0.1,0.2L201.4,33.4 M192.3,33.1L192.3,33.1l0-0.3v0l-0.1-0.3l0,0l-0.2-0.3l0,0l-0.3-0.3v0l-0.3-0.3l0,0
		l-0.4-0.2h0l-0.4-0.2l-0.5-0.2l0,0l-0.5-0.2h0l-0.6-0.1l-0.6-0.1l-0.6-0.1l-0.6,0l-0.6,0h0l-0.6,0l-0.5,0.1h0l-0.5,0.1h0l-0.5,0.1
		l0,0l-0.4,0.2l-0.3,0.2l0,0l-0.3,0.2l0,0l-0.2,0.3l0,0l-0.2,0.3l-0.1,0.3l0,0.3l0,0l0.1,0.3v0l0.2,0.3l0,0l0.3,0.3l0,0l0.3,0.2l0,0
		l0.4,0.2h0l0.4,0.2h0l0.5,0.2v0l0.5,0.2h0l0.6,0.1l0.6,0.1l0.6,0.1l0.6,0l0.6,0h0l0.6-0.1l0.5-0.1h0l0.5-0.1h0l0.5-0.1l0,0l0.4-0.2
		l0.3-0.2l0,0l0.3-0.2l0,0l0.2-0.2l0,0l0.2-0.3L192.3,33.1 M175.4,32v-0.2l-0.1-0.2l-0.2-0.1l-3.5-2l-0.3-0.1l-0.3,0l-0.3,0
		l-0.3,0.1l-3.5,2l-0.1,0.1l-0.1,0.2V32l0.1,0.2l0.1,0.1l3.4,2l0.3,0.1l0.3,0l0.3,0l0.3-0.1l3.4-2l0.2-0.1L175.4,32L175.4,32
		 M159.2,32.3L159.2,32.3l-0.1-0.3l0,0l-0.1-0.3l0,0l-0.2-0.3l0,0l-0.3-0.2l0,0l-0.3-0.2l-0.4-0.2l0,0l-0.5-0.1h0l-0.5-0.1h0
		l-0.5-0.1l-0.6,0h0l-0.6,0l-0.6,0l-0.6,0.1h0l-0.6,0.1l-0.6,0.1h0l-0.5,0.2l0,0l-0.5,0.2l-0.4,0.2h0l-0.4,0.2l0,0l-0.3,0.3v0
		l-0.3,0.3l0,0l-0.2,0.3l0,0l-0.1,0.3l0,0.3l0.1,0.3l0,0l0.1,0.3l0,0l0.2,0.2l0,0l0.3,0.2l0,0l0.3,0.2l0.4,0.2l0,0l0.4,0.1h0
		l0.5,0.1h0l0.5,0.1l0.6,0.1h0l0.6,0l0.6,0l0.6-0.1h0l0.6-0.1l0.6-0.1h0l0.5-0.2v0l0.5-0.2h0L158,34h0l0.4-0.2l0,0l0.3-0.2l0,0
		l0.2-0.3l0,0l0.2-0.3v0l0.1-0.3L159.2,32.3 M202.6,31.9l0-0.3l-0.1-0.3l-0.2-0.3l-0.3-0.3l-0.3-0.3l-0.4-0.3l-0.5-0.3l-0.6-0.3
		l-0.6-0.3l-0.7-0.2l-0.7-0.2l-0.8-0.2l-0.8-0.2l-0.9-0.2l-0.9-0.2l-0.9-0.2l-1-0.2l-1-0.2l-1-0.1l-1.1-0.1l-1.1-0.1l-1.1-0.1
		l-1.1-0.1l-1.1-0.1l-1.1-0.1l-1.1-0.1l-1.1-0.1l-1-0.1l-1-0.1l-1-0.1l-0.9-0.1l-0.9,0l-0.9,0l-0.9,0l-0.8,0l-0.8,0l-0.7,0l-0.7,0
		l-0.6,0l-0.5,0h-0.5h-0.5l-0.5,0l-0.6,0l-0.7,0l-0.7,0l-0.8,0l-0.8,0l-0.9,0l-0.9,0l-0.9,0l-1,0.1l-1,0.1l-1,0.1l-1,0.1l-1.1,0.1
		l-1.1,0.1l-1.1,0.1l-1.1,0.1l-1.1,0.1l-1.1,0.1l-1.1,0.1l-1.1,0.1l-1,0.1l-1,0.2l-1,0.2l-1,0.2l-0.9,0.2l-0.9,0.2l-0.8,0.2L144,29
		l-0.7,0.2l-0.7,0.2l-0.6,0.3l-0.6,0.3l-0.5,0.3l-0.4,0.3l-0.3,0.3l-0.3,0.3l-0.1,0.3l-0.1,0.3l0,0.3l0,0.2l0,0.2l0.1,0.1l0.1,0.1
		l0.1,0.1l0.1,0.1l0.1,0l0.1-0.2l0.2-0.3l0,0l0.2-0.3l0,0l0.3-0.2l0,0l0.4-0.2h0l0.5-0.2l0.5-0.2h0l0.6-0.2v0l0.7-0.2l0.7-0.2h0
		l0.8-0.2l0.9-0.2l0.9-0.2l1-0.2l1-0.2h0l1.1-0.2l1.1-0.2l1.2-0.2l1.2-0.1l1.3-0.1l1.3-0.1l1.4-0.1l1.4-0.1l1.4-0.1l1.5-0.1l1.5-0.1
		h0l1.5-0.1l1.5-0.1l1.6,0l1.6,0l1.6,0l1.6,0l1.6,0l1.6,0l1.5,0.1l1.5,0.1h0l1.5,0.1l1.4,0.1l1.4,0.1l1.4,0.1l1.4,0.1l1.3,0.1
		l1.3,0.1l1.2,0.1l1.2,0.2l1.1,0.2l1.1,0.2h0l1,0.2l1,0.2l0.9,0.2l0.9,0.2l0.8,0.2h0l0.7,0.2l0.7,0.2v0l0.6,0.2h0l0.5,0.2l0.5,0.2h0
		l0.4,0.2l0,0l0.3,0.2l0,0l0.2,0.3l0,0l0.2,0.3l0,0l0.1,0.2l0.1,0l0.1-0.1l0.1-0.1l0.1-0.1l0.1-0.1l0-0.2L202.6,31.9 M137.2,20.4
		v-0.3l0-0.4l-0.1-0.4l-0.1-0.3l-0.2-0.3l-0.2-0.3l-0.3-0.3l-0.3-0.2l-0.3-0.2l-0.3-0.1l-0.3,0.1l-0.3,0.2l-0.3,0.3l-0.2,0.3
		l-0.2,0.3l-0.1,0.4l0,0.4l0,0.4l0.1,0.4l0.2,0.3l0.2,0.3l0.3,0.3l0.3,0.2l0.4,0.1l0.4,0.1l0.5,0l0.2-0.1l0.1-0.1l0.1-0.1l0.1-0.3
		l0.1-0.3L137.2,20.4 M138,11.9l0,0.5l-0.1,0.4l-0.1,0.4l-0.1,0.3l-0.2,0.3l-0.2,0.3l-0.2,0.3v0l-0.1,0.3l-0.1,0.3l-0.1,0.3l0,0
		l-0.1,0.3v0l0,0.3v0l0,0.3l0.1,0.4l0.1,0.3l0,0l0.2,0.2l0,0l0.3,0.1l0,0l0.3,0.1h0l0.3,0l0.3-0.1l0.2-0.1l0,0l0.2-0.1l0,0l0.1-0.2
		l0,0l0.1-0.2v0l0.1-0.2l0,0l0.1-0.2l0.1-0.2l0.1-0.3l0.1-0.3l0.1-0.3l0.1-0.3l0.1-0.3l0.2-0.3l0.2-0.3l0.2-0.3l0.3-0.3L141,13
		l0.4-0.2l0.1,0.2v0l0.1,0.2l0.1,0.3l0.1,0.3l0.1,0.3l0,0.3l0,0.3l0,0.2l0,0.2l0,0.2l0,0.1v0.2l0.1,0l0.2-0.3l0.1-0.1l0.2-0.2
		l0.2-0.2l0.2-0.1l0.2-0.1l0.2,0l0.3,0l0.2,0l0.2,0l0.2,0.1l0.3,0.1l0.3,0.2l0.3,0.2l0,0.3l-0.1,0.3l-0.1,0.3l-0.1,0.2l-0.1,0.2
		l-0.1,0.2l-0.2,0.2l-0.1,0.1l-0.2,0.1l-0.2,0.1l-0.2,0.1l-0.2,0.1l-0.2,0l-0.3,0l0,0l0.1,0.1l0,0l0.1,0.1l0.1,0.1l0.2,0.1l0.2,0.1
		l0.2,0.2l0.2,0.2l0.2,0.2l0.2,0.2l0.1,0.2l0.1,0.2l0.1,0.2l0,0l-0.4,0.2l-0.4,0.1l-0.4,0.1l-0.4,0h-0.4l-0.3,0l-0.3-0.1l-0.3-0.1
		l-0.3-0.1l-0.2-0.1l-0.2-0.1l-0.2-0.1h0l-0.2-0.1l0,0l-0.2-0.1h0l-0.2,0h0l-0.2,0h0l-0.2,0.1l-0.3,0.1l-0.2,0.7v0l-0.1,0.7v0l0,0.7
		v0l0.1,0.7v0l0.1,0.6v0l0.2,0.6h0l0.2,0.6v0l0.3,0.6v0l0.4,0.6h0l0.4,0.5v0l0.4,0.5h0l0.5,0.5v0l0.5,0.4h0l0.6,0.4v0l0.6,0.4
		l0.4,0.2l-0.5,0.2l-0.7,0.2v0l-0.6,0.2h0l-0.6,0.3l-0.5,0.3h0l-0.4,0.3l0,0l-0.4,0.3l-0.2,0.2l-0.7-1.9l-0.7-2.1l-0.7-2.1l-0.7-2.1
		l0.2-0.2l0,0l0.2-0.3l0,0l0.2-0.3l0,0l0.1-0.4l0.1-0.4v-0.4l0-0.4v0l-0.1-0.4l0,0l-0.1-0.4v0l-0.2-0.4v0l-0.2-0.3l0,0l-0.3-0.3l0,0
		l-0.3-0.3l0,0l-0.3-0.2l0,0l-0.4-0.1l-0.3,0l-0.7-2.4l-0.7-2.4l-0.7-2.3l-0.6-2.1l0.2,0.1l0.3,0.1l0.3,0.1l0.2,0.1l0.2,0.1l0.2,0.2
		l0.2,0.2l0.2,0.3l0.1,0.2l0.1,0.2l0.1,0.3l0.1,0.3l0.1,0.3l0.1,0.3l0.1,0.3l0,0.3l0,0.2l0,0.3l0.1,0l0.1-0.2l0-0.1l0.1-0.1l0.1-0.2
		l0.1-0.2l0.1-0.2l0.2-0.2l0.2-0.2l0.3-0.2l0.3-0.2l0.3-0.1l0.2-0.1l0.2-0.1l0,0l0.1,0.5l0.1,0.5l0.1,0.5L138,11.9 M142.2,28.1
		L142.2,28.1l-0.5-0.3l-0.3-0.2l-0.3-0.3l-0.3-0.3l-0.4-0.4l-0.4-0.5l-0.4-0.5l-0.4-0.6l-0.4-0.7l-0.6-0.9l-0.1,0.1l0.3,0.9l0.3,0.8
		h0l0.3,0.8l0.3,0.8l0.3,0.8l0.3,0.8l0.3,0.8l0.4-0.3l0.2-0.1l0.2-0.1l0.2-0.1l0.2-0.1l0.3-0.1l0.3-0.1L142.2,28.1"/>
	<path class="st1" d="M347.4,57.5h2.6c0.4,0,0.8,0.1,1,0.2c0.5,0.2,0.8,0.7,0.8,1.3c0,0.3-0.1,0.6-0.2,0.8c-0.1,0.2-0.3,0.4-0.6,0.5
		c0.2,0.1,0.4,0.2,0.5,0.4c0.1,0.1,0.2,0.4,0.2,0.7l0,0.8c0,0.2,0,0.4,0.1,0.5c0,0.2,0.1,0.3,0.2,0.3v0.1h-0.9c0,0,0-0.1-0.1-0.2
		c0-0.1,0-0.2,0-0.4l0-0.9c0-0.4-0.2-0.6-0.4-0.7c-0.1-0.1-0.4-0.1-0.7-0.1h-1.7v2.4h-0.8V57.5z M349.9,60c0.3,0,0.6-0.1,0.8-0.2
		c0.2-0.1,0.3-0.4,0.3-0.8c0-0.4-0.1-0.7-0.4-0.8c-0.2-0.1-0.4-0.1-0.6-0.1h-1.8V60H349.9z"/>
	<path class="st1" d="M349.6,67c-3.7,0-6.7-3-6.7-6.7c0-3.7,3-6.7,6.7-6.7c3.7,0,6.7,3,6.7,6.7C356.3,64,353.3,67,349.6,67
		 M349.6,54.7c-3.1,0-5.6,2.5-5.6,5.6s2.5,5.6,5.6,5.6c3.1,0,5.6-2.5,5.6-5.6S352.7,54.7,349.6,54.7"/>
</g>
</svg>
